HIERARCHY
ROOT hip
{
	OFFSET 0.000000 0.000000 0.000000 
	CHANNELS 6 Xposition Yposition Zposition Zrotation Xrotation Yrotation
	JOINT abdomen
	{
		OFFSET 0.000000 3.402643 0.000000 
		CHANNELS 3 Zrotation Xrotation Yrotation
		JOINT chest
		{
			OFFSET 0.000000 8.438565 -0.680529 
			CHANNELS 3 Zrotation Xrotation Yrotation
			JOINT neck
			{
				OFFSET 0.000000 10.207942 -0.272212 
				CHANNELS 3 Zrotation Xrotation Yrotation
				JOINT head
				{
					OFFSET 0.000000 3.130431 0.000000 
					CHANNELS 3 Zrotation Xrotation Yrotation
					End Site
					{
						OFFSET 0.000000 3.130435 0.000000 
					}
				}
			}
			JOINT lCollar
			{
				OFFSET 3.470700 6.669187 -0.816635 
				CHANNELS 3 Zrotation Xrotation Yrotation
				JOINT lShldr
				{
					OFFSET 3.198488 0.000000 0.000000 
					CHANNELS 3 Zrotation Xrotation Yrotation
					JOINT lForeArm
					{
						OFFSET 10.139888 0.000000 0.000000 
						CHANNELS 3 Zrotation Xrotation Yrotation
						JOINT lHand
						{
							OFFSET 8.370511 0.000000 0.000000 
							CHANNELS 3 Zrotation Xrotation Yrotation
							End Site
							{
								OFFSET 4.083176 0.000000 0.000000 
							}
						}
					}
				}
			}
			JOINT rCollar
			{
				OFFSET -3.470700 6.669187 -0.816635 
				CHANNELS 3 Zrotation Xrotation Yrotation
				JOINT rShldr
				{
					OFFSET -3.198488 0.000000 0.000000 
					CHANNELS 3 Zrotation Xrotation Yrotation
					JOINT rForeArm
					{
						OFFSET -10.139888 0.000000 0.000000 
						CHANNELS 3 Zrotation Xrotation Yrotation
						JOINT rHand
						{
							OFFSET -8.370511 0.000000 0.000000 
							CHANNELS 3 Zrotation Xrotation Yrotation
							End Site
							{
								OFFSET -4.083176 0.000000 0.000000 
							}
						}
					}
				}
			}
		}
	}
	JOINT lThigh
	{
		OFFSET 5.308129 -1.633274 1.361059 
		CHANNELS 3 Zrotation Xrotation Yrotation
		JOINT lShin
		{
			OFFSET -2.041588 -20.007561 0.000000 
			CHANNELS 3 Zrotation Xrotation Yrotation
			JOINT lFoot
			{
				OFFSET 0.000000 -19.190928 -1.224953 
				CHANNELS 3 Zrotation Xrotation Yrotation
				End Site
				{
					OFFSET 0.000000 -2.449906 4.627600 
				}
			}
		}
	}
	JOINT rThigh
	{
		OFFSET -5.308129 -1.633274 1.361059 
		CHANNELS 3 Zrotation Xrotation Yrotation
		JOINT rShin
		{
			OFFSET 2.041588 -20.007561 0.000000 
			CHANNELS 3 Zrotation Xrotation Yrotation
			JOINT rFoot
			{
				OFFSET 0.000000 -19.190928 -1.224953 
				CHANNELS 3 Zrotation Xrotation Yrotation
				End Site
				{
					OFFSET 0.000000 -2.449906 4.627600 
				}
			}
		}
	}
}
MOTION
Frames: 11
Frame Time: 0.033333
4.955427 48.397079 -0.154365 1.426514 1.835361 -24.791546 4.171390 1.519402 -1.194076 -1.038193 -4.384048 -14.483843 0.810547 -0.029296 -0.155836 4.838496 -2.461909 32.650372 -1.826698 -0.874162 -4.197731 -65.613579 19.414055 12.591940 -11.725191 11.019373 -31.802883 8.820189 -15.503103 -8.761453 7.644662 9.708870 -0.795623 66.611992 -3.238546 9.096681 3.429939 25.318462 27.558435 -2.934539 3.598602 4.690096 4.266523 -13.983623 -2.954496 -5.253790 21.049540 0.210996 5.224507 -10.954184 34.210884 -1.620182 -13.835706 9.226010 -3.352689 21.676571 -0.796529 5.757189 -8.218250 13.889491 
5.529450 48.167568 0.659500 1.319133 1.962348 -37.134785 7.227520 0.930053 -0.761244 -0.029406 -4.951167 -20.852154 0.810547 -0.029296 -0.155836 6.606374 -2.182689 50.400341 0.897368 -0.976860 -4.218760 -60.762077 20.852589 12.815164 -11.003642 16.736780 -46.792866 8.820189 -15.503103 -8.761453 8.812629 9.577541 -0.724459 63.847889 -3.875642 7.047449 2.448436 27.140863 33.197876 -3.129767 5.495382 4.689832 8.240818 -15.823153 3.157713 -6.209168 25.734713 0.609548 7.180429 -12.568243 41.228519 -2.160659 -14.703502 9.066685 -4.435111 26.180637 -1.164387 7.861735 -12.122933 27.873005 
5.941953 47.985062 0.987210 1.231257 2.060080 -46.743496 9.697610 0.481300 -0.492405 0.823958 -5.390072 -26.172457 0.810547 -0.029296 -0.155836 6.898539 -1.948690 64.981361 3.142684 -1.065668 -4.242095 -56.094532 22.083656 13.126783 -8.406437 20.542992 -58.393368 8.820189 -15.503103 -8.761453 9.707587 9.450831 -0.712607 60.377579 -3.192533 4.665458 0.665178 28.441154 36.522484 -2.998695 7.024319 4.802733 13.289454 -16.332956 8.891722 -7.395176 28.419891 0.528739 8.271441 -12.493668 46.210571 -2.929639 -16.255322 8.813826 -5.522842 30.222366 -1.272982 10.212713 -14.689645 39.162300 
6.105380 47.880390 0.632006 1.182435 2.108928 -51.918316 11.240349 0.258614 -0.518242 1.422937 -5.652566 -29.703569 0.810547 -0.029296 -0.155836 5.061043 -1.780148 74.318642 4.587581 -1.124575 -4.244545 -51.921307 22.980957 13.533487 -6.016682 20.857224 -63.919594 8.820189 -15.503103 -8.761453 10.205899 9.364390 -0.779586 56.216560 -0.741761 1.943522 -1.641951 29.020483 36.198006 -2.519629 7.930808 5.035337 17.649303 -16.624887 12.109550 -9.064066 28.867315 -0.572393 6.781879 -10.672409 49.945614 -3.122541 -17.461990 8.814840 -6.091592 32.205204 -1.392209 11.314775 -15.385291 45.212097 
6.104894 47.844097 0.017508 1.162898 2.128463 -53.519558 12.080112 0.133694 -0.682909 1.737378 -5.788373 -31.582245 0.810547 -0.029296 -0.155836 2.012601 -1.698171 79.269005 5.359006 -1.153333 -4.249253 -48.344330 23.622725 13.750114 -4.648974 18.661549 -64.059715 8.820189 -15.503103 -8.761453 10.481812 9.318109 -0.798283 51.722500 2.177478 -0.869769 -3.276284 29.640787 33.273045 -2.308575 8.401568 5.128346 21.518803 -16.816257 11.244489 -10.995769 26.441280 -2.118506 4.537021 -7.100039 54.291264 -2.666047 -18.380905 9.080525 -6.372598 33.513935 -1.475425 11.380731 -15.686237 46.937225 
6.068841 47.856655 -0.277566 1.172680 2.118674 -53.002129 12.578132 -0.057187 -0.690365 1.777075 -5.915141 -32.159801 0.810547 -0.029296 -0.155836 -0.937919 -1.708754 81.427086 5.720833 -1.160613 -4.246625 -45.421703 24.145767 13.473530 -3.726423 15.428357 -60.774658 8.820189 -15.503103 -8.761453 10.799577 9.321362 -0.651546 46.985332 3.782234 -3.445012 -2.890042 30.821432 29.642649 -3.162142 8.791005 4.814259 24.018089 -17.111267 5.758569 -12.604393 21.805710 -4.142955 1.618476 -2.942022 61.354351 -2.274348 -18.352386 9.265546 -6.589205 34.125210 -1.596157 11.430400 -16.319458 46.537758 
6.107068 47.896614 0.188172 1.182443 2.108906 -51.635117 13.086293 -0.418527 -0.361696 1.581197 -6.091446 -31.843618 0.810547 -0.029296 -0.155836 -2.765047 -1.804537 82.158463 5.876672 -1.172183 -4.245453 -43.176498 24.640070 12.534310 -2.711247 12.247693 -55.906452 8.820189 -15.503103 -8.761453 11.348038 9.382000 -0.300897 41.721848 2.769458 -5.504493 0.196752 32.227016 26.884094 -5.287621 9.285244 3.919028 25.242334 -17.837620 -4.357652 -14.234428 16.863613 -5.430911 -1.417596 -0.181043 71.694244 -2.683697 -16.835646 9.311281 -6.346900 33.253101 -1.831808 11.757583 -17.168106 45.168865 
6.255433 47.934723 1.306793 1.192200 2.089373 -49.935848 13.712666 -0.901294 0.163634 1.326290 -6.267863 -31.280851 0.810547 -0.029296 -0.155836 -3.537124 -1.910421 81.991295 5.886412 -1.172907 -4.245378 -41.575989 25.004625 11.479116 -1.370103 9.536304 -50.732838 8.820189 -15.503103 -8.761453 11.989878 9.418675 -0.164634 35.421631 -0.456662 -7.099836 4.023050 32.870270 25.210320 -6.780333 9.670539 2.812518 25.652027 -19.277382 -16.668880 -15.777782 12.954406 -5.607344 -4.017174 0.671568 82.894615 -3.815100 -14.040956 9.117942 -5.881844 30.921574 -2.146335 12.312963 -17.953495 43.671940 
6.531310 47.939838 2.833037 1.211724 2.069846 -48.198071 14.506492 -1.418164 0.640329 1.218428 -6.355994 -31.193005 0.810547 -0.029296 -0.155836 -3.615292 -1.910259 81.256302 5.808492 -1.167120 -4.245976 -40.590729 25.135601 11.026062 0.198833 7.379298 -46.331558 8.820189 -15.503103 -8.761453 12.549418 9.291876 -0.782769 27.676371 -5.033695 -8.391973 5.828841 31.879978 24.692038 -5.241128 9.666400 1.990626 25.580978 -21.201679 -27.460518 -17.263088 10.721966 -3.762636 -5.508708 0.390104 90.613632 -5.715291 -11.289017 8.804434 -5.366979 29.009718 -2.451917 13.452586 -18.784933 42.577827 
6.952059 47.880798 4.521643 1.231257 2.060080 -46.743496 15.555562 -1.891045 0.819267 1.463803 -6.257737 -32.291588 0.810547 -0.029296 -0.155836 -3.331558 -1.706097 80.262024 5.661669 -1.166018 -4.247078 -40.194359 24.904636 11.891169 1.828192 5.699660 -43.840919 8.820189 -15.503103 -8.761453 12.808287 8.892467 -2.664618 18.171593 -10.152862 -9.565218 3.004966 28.334248 25.443125 1.772920 8.972538 1.955733 25.948780 -23.986271 -32.689896 -20.064842 11.288175 1.155285 -5.527493 -0.122113 90.572540 -8.040649 -8.293328 8.755953 -4.424586 26.044825 -3.109169 14.259089 -18.470110 41.638737 
7.516113 47.729019 6.175686 1.241013 2.050312 -45.796356 16.780499 -2.215998 0.788034 2.120969 -5.992015 -34.270321 0.810547 -0.029296 -0.155836 -2.988938 -1.199538 78.609230 5.457130 -1.150825 -4.248551 -40.199398 24.224966 14.074002 2.999982 4.476370 -43.945122 8.820189 -15.503103 -8.761453 12.593363 8.311251 -5.817874 6.920411 -16.008703 -10.387505 -4.839878 20.869482 28.155100 14.140995 7.519875 2.904618 24.836536 -24.082581 -31.654285 -20.628103 12.077207 8.351483 -8.349421 6.885366 81.866394 -11.086709 -5.680766 8.547802 -3.816118 22.735365 -3.293852 15.640726 -17.006599 41.214653 
